/vscmnt/brussel_pixiu_data/_data_brussel/112/vsc11236/PredSimResults/SUBJ10_Dhondt2024_3seg/weighted/worker_01.mot
version=1
nRows=4
nColumns=124
inDegrees=yes
endheader
                time	         pelvis_tilt	         pelvis_list	     pelvis_rotation	           pelvis_tx	           pelvis_ty	           pelvis_tz	       hip_flexion_r	     hip_adduction_r	      hip_rotation_r	        knee_angle_r	       ankle_angle_r	    subtalar_angle_r	         mtp_angle_r	       hip_flexion_l	     hip_adduction_l	      hip_rotation_l	        knee_angle_l	       ankle_angle_l	    subtalar_angle_l	         mtp_angle_l	    lumbar_extension	      lumbar_bending	     lumbar_rotation	          arm_flex_r	           arm_add_r	           arm_rot_r	        elbow_flex_r	          arm_flex_l	           arm_add_l	           arm_rot_l	        elbow_flex_l	glut_med1_r/activation	glut_med2_r/activation	glut_med3_r/activation	glut_min1_r/activation	glut_min2_r/activation	glut_min3_r/activation	semimem_r/activation	semiten_r/activation	bifemlh_r/activation	bifemsh_r/activation	    sar_r/activation	add_long_r/activation	add_brev_r/activation	add_mag1_r/activation	add_mag2_r/activation	add_mag3_r/activation	    tfl_r/activation	   pect_r/activation	   grac_r/activation	glut_max1_r/activation	glut_max2_r/activation	glut_max3_r/activation	iliacus_r/activation	  psoas_r/activation	quad_fem_r/activation	    gem_r/activation	   peri_r/activation	rect_fem_r/activation	vas_med_r/activation	vas_int_r/activation	vas_lat_r/activation	med_gas_r/activation	lat_gas_r/activation	 soleus_r/activation	tib_post_r/activation	flex_dig_r/activation	flex_hal_r/activation	tib_ant_r/activation	per_brev_r/activation	per_long_r/activation	per_tert_r/activation	ext_dig_r/activation	ext_hal_r/activation	glut_med1_l/activation	glut_med2_l/activation	glut_med3_l/activation	glut_min1_l/activation	glut_min2_l/activation	glut_min3_l/activation	semimem_l/activation	semiten_l/activation	bifemlh_l/activation	bifemsh_l/activation	    sar_l/activation	add_long_l/activation	add_brev_l/activation	add_mag1_l/activation	add_mag2_l/activation	add_mag3_l/activation	    tfl_l/activation	   pect_l/activation	   grac_l/activation	glut_max1_l/activation	glut_max2_l/activation	glut_max3_l/activation	iliacus_l/activation	  psoas_l/activation	quad_fem_l/activation	    gem_l/activation	   peri_l/activation	rect_fem_l/activation	vas_med_l/activation	vas_int_l/activation	vas_lat_l/activation	med_gas_l/activation	lat_gas_l/activation	 soleus_l/activation	tib_post_l/activation	flex_dig_l/activation	flex_hal_l/activation	tib_ant_l/activation	per_brev_l/activation	per_long_l/activation	per_tert_l/activation	ext_dig_l/activation	ext_hal_l/activation	 ercspn_r/activation	 ercspn_l/activation	 intobl_r/activation	 intobl_l/activation	 extobl_r/activation	 extobl_l/activation	
          0.00000000	         -2.91965325	         -0.33077073	          2.00630045	          0.00000000	          0.82349012	         -0.00115470	         28.67363847	          3.10197876	          4.23240096	        -13.23535731	          9.34180858	         -0.10691694	          0.23470432	        -16.33169507	          1.91183343	          9.42070614	         -6.53340638	          5.14019095	         12.52762105	         13.34563184	         -5.48433230	         -0.21610312	         -1.06990622	        -26.18427884	        -14.48865496	          1.60295514	         34.72378902	         21.97476027	        -13.50655788	         12.80460225	         43.44674381	          0.01371527	          0.01019186	          0.01014945	          0.01075453	          0.01004725	          0.01005976	          0.11506469	          0.02079722	          0.01173888	          0.01003504	          0.01238815	          0.06248111	          0.13312257	          0.10579580	          0.11494878	          0.07957413	          0.01003170	          0.01862932	          0.03810823	          0.01177886	          0.01575876	          0.05052683	          0.01527861	          0.01418271	          0.01513870	          0.01014893	          0.01002241	          0.01000598	          0.07213594	          0.07323626	          0.06058213	          0.01168822	          0.01108889	          0.01169339	          0.01000267	          0.01001391	          0.01002829	          0.29222445	          0.18241274	          0.10825352	          0.12478870	          0.28587746	          0.03820057	          0.20651435	          0.09475390	          0.05502442	          0.26980877	          0.21749556	          0.13345880	          0.01161402	          0.01036310	          0.01018984	          0.02811703	          0.08001491	          0.01000800	          0.01000977	          0.01002321	          0.01008435	          0.01005089	          0.33673541	          0.01003807	          0.01010476	          0.01618686	          0.01527549	          0.01035638	          0.17168930	          0.32456740	          0.01597984	          0.01599863	          0.04743364	          0.20893472	          0.01001099	          0.01001350	          0.01001077	          0.25987629	          0.29431612	          0.24143779	          0.23067987	          0.29957663	          0.36577622	          0.01423075	          0.03520435	          0.16848071	          0.01171739	          0.01350625	          0.01403240	          0.01367465	          0.01000049	          0.02862372	          0.01000687	          0.08325488	          0.01001421	
          0.01016225	         -2.91031284	         -0.56802215	          2.15270616	          0.01389799	          0.82306381	         -0.00095660	         28.00285938	          3.53900429	          4.29226280	        -12.92337038	          8.68079558	         -0.21502480	          0.23848555	        -16.25488384	          1.67051089	          9.30152450	         -8.31236612	          4.29341984	         12.87032806	         14.32360279	         -5.34866225	          0.21175136	         -1.11617902	        -27.07254010	        -14.45951582	          1.50445872	         34.78271700	         21.86669476	        -13.50897775	         12.85737775	         44.53408855	          0.01173118	          0.01168613	          0.01000582	          0.01171392	          0.01170726	          0.01094726	          0.09840082	          0.01778785	          0.01004010	          0.01000497	          0.01060273	          0.05345079	          0.12948557	          0.14336909	          0.12814324	          0.07028929	          0.01003796	          0.01878920	          0.03260278	          0.01008129	          0.01347967	          0.04323109	          0.01312833	          0.01213782	          0.13697013	          0.01001998	          0.01002606	          0.01366696	          0.10131656	          0.06285741	          0.08383360	          0.01000048	          0.01000105	          0.01000028	          0.01068481	          0.01047380	          0.01002597	          0.29570764	          0.16797332	          0.11367223	          0.14862975	          0.30981938	          0.04955137	          0.24919714	          0.08103045	          0.04705508	          0.23078641	          0.18599738	          0.11413010	          0.01009485	          0.01000839	          0.01000692	          0.02404566	          0.06843001	          0.03667853	          0.01003304	          0.01004134	          0.01009649	          0.01002307	          0.28796728	          0.06336309	          0.01181082	          0.01385342	          0.01307750	          0.01005501	          0.14682454	          0.27755906	          0.01366798	          0.01368717	          0.04056403	          0.18160003	          0.01001609	          0.01002143	          0.01001850	          0.22223631	          0.25168904	          0.22167065	          0.21819985	          0.25624349	          0.31355540	          0.01216973	          0.03297020	          0.16830859	          0.01002245	          0.01155054	          0.01200090	          0.01169438	          0.01409546	          0.02447815	          0.02694354	          0.07119651	          0.01001007	
          0.02032449	         -2.89769209	         -0.81492732	          2.28754655	          0.02798246	          0.82262144	         -0.00076674	         27.29226876	          3.94359326	          4.37795268	        -13.14264987	          7.78394367	         -0.30338524	          0.24067800	        -16.07860639	          1.43333121	          9.17419570	        -10.26303827	          3.28957726	         13.19140561	         15.28964519	         -5.20363828	          0.65373089	         -1.15513696	        -27.74364609	        -14.42232413	          1.54893803	         34.40256783	         21.66283590	        -13.50950070	         12.88197767	         45.50567361	          0.01003278	          0.01000555	          0.02946590	          0.01002007	          0.01001654	          0.01000875	          0.08414956	          0.06685006	          0.04481704	          0.01837972	          0.01362199	          0.04571502	          0.11076748	          0.12265681	          0.10960124	          0.06011363	          0.01002085	          0.01622098	          0.09605460	          0.01141282	          0.02063775	          0.03697955	          0.01364286	          0.01366667	          0.11869741	          0.01832472	          0.01006110	          0.01168950	          0.08664379	          0.05375490	          0.07169275	          0.01627782	          0.01772825	          0.01568016	          0.01180190	          0.01207890	          0.01423554	          0.25287834	          0.17380188	          0.10211999	          0.12710479	          0.26495607	          0.04237576	          0.21311321	          0.06929456	          0.04023993	          0.19737872	          0.15906018	          0.09760063	          0.01504764	          0.01023901	          0.01016695	          0.02056386	          0.05852135	          0.06867056	          0.01739231	          0.01171404	          0.01168519	          0.01180457	          0.24626161	          0.05727109	          0.01031449	          0.01185721	          0.01120332	          0.01012675	          0.12555995	          0.23735917	          0.01169024	          0.01170936	          0.03468932	          0.15530329	          0.02049932	          0.01298446	          0.01186835	          0.19004791	          0.21523518	          0.18956473	          0.18660448	          0.21913724	          0.26814808	          0.01040734	          0.03436541	          0.16986802	          0.01000373	          0.01000108	          0.01026429	          0.01000094	          0.02404481	          0.02093304	          0.02304250	          0.06088465	          0.01462191	
          0.03048674	         -2.88280186	         -1.07959818	          2.40834963	          0.04215326	          0.82217679	         -0.00058475	         26.55582151	          4.31211809	          4.49189660	        -13.50358288	          6.77112108	         -0.37479366	          0.24177297	        -15.78119555	          1.19697119	          9.02931709	        -12.40684432	          2.12913248	         13.46974707	         16.18703404	         -5.05658242	          1.11668798	         -1.18684959	        -28.18072876	        -14.38414246	          1.74441552	         33.59237567	         21.38295340	        -13.51100722	         12.90625133	         46.34183945	          0.18562518	          0.20548999	          0.22410218	          0.13265449	          0.01061778	          0.11125448	          0.07196214	          0.05720262	          0.03840148	          0.01572703	          0.01167853	          0.03909701	          0.09473773	          0.10492283	          0.09378132	          0.07832144	          0.01003222	          0.01391522	          0.08215975	          0.15180274	          0.01881684	          0.04302153	          0.01169506	          0.01169553	          0.10151086	          0.01568166	          0.02274335	          0.01000497	          0.12457672	          0.04597475	          0.10136970	          0.01392039	          0.01516101	          0.01340918	          0.01009304	          0.01033218	          0.01217590	          0.37846680	          0.21626204	          0.11217556	          0.45891420	          0.36428539	          0.23046960	          0.21102422	          0.05925855	          0.03441193	          0.25271234	          0.13602566	          0.08346543	          0.01764932	          0.01000661	          0.01000491	          0.01758644	          0.05004801	          0.05873153	          0.01487900	          0.01003428	          0.01006432	          0.01011781	          0.21059824	          0.04900263	          0.01001426	          0.01015483	          0.01001520	          0.01001109	          0.10737523	          0.20298247	          0.01000273	          0.01002062	          0.02966557	          0.13629629	          0.01753925	          0.01111562	          0.01015713	          0.16252162	          0.18406110	          0.16210845	          0.15957865	          0.18740182	          0.22931336	          0.01000167	          0.06018574	          0.16241371	          0.01001041	          0.01000539	          0.01001159	          0.02759839	          0.04553280	          0.01790158	          0.01970523	          0.05206632	          0.01250444	
